<svg xmlns="http://www.w3.org/2000/svg" viewBox="0 0 512 512" style="enable-background:new 0 0 512 512" xml:space="preserve"><circle style="fill:#273277" cx="256" cy="256" r="256"/><path style="fill:#222b5a" d="M512 256c0 71.94-29.68 136.95-77.45 183.46C388.43 484.34 325.44 512 256 512c-34.91 0-68.18-6.99-98.5-19.64-32.26-13.46-61.18-33.33-85.16-58.02C27.57 388.24 0 325.34 0 256c0-44.11 11.16-85.61 30.81-121.84 13.1 1.57 32.34 7.67 50.81 27.51 18 19.33 18 52.07 53 41.7 0 0 32.82-14.54 61.41 13.05 0 0 6.56 3.94 17.28 9.24 18.39 9.08 49 22.15 79.66 26.17h.01c2.01.26 4.03.49 6.04.66 5.99.55 11.95.72 17.8.4 1.59-.09 3.17-.21 4.73-.36 10.33-1.04 20.19-3.7 29.07-8.53 0 0 55-31.72 104-2.86 0 0 33.24 22.71 57.3 8.13.05 2.24.08 4.48.08 6.73z"/><path style="fill:#78c478" d="m324.995 35.639-.54 68.427-137.192.013V35.411c0-1.373.292-2.72.839-3.966 1.246-2.873 3.839-5.263 7.284-6.559l21.394-8.059c23.402-8.797 50.084-9.114 73.766-.877l25.983 9.038c2.771.966 5.021 2.644 6.483 4.716 1.271 1.753 1.983 3.8 1.983 5.935z"/><path style="fill:#8adb8c" d="M434.55 349.63v89.83C388.43 484.34 325.44 512 256 512c-34.91 0-68.18-6.99-98.5-19.64-32.26-13.46-61.18-33.33-85.16-58.02v-84.71s7.7-48.11 52.92-64.46c6.34-2.3 12.54-4.94 18.47-7.78 2.13-1.02 4.23-2.06 6.29-3.11 12.12-6.23 23.01-13.13 31.94-19.38 4.83-3.36 9.69-6.54 14.09-9.31 9.73-6.13 17.26-10.31 17.26-10.31-.03.89-.03 1.83 0 2.81.26 7.33 2.52 17.25 10.77 26.68.24.28.49.55.74.82a38.336 38.336 0 0 0 1.94 1.95c.23.23.46.44.7.65.23.21.47.42.71.62.24.21.48.41.73.61.24.2.48.39.73.58.99.77 2.01 1.48 3.05 2.13.22.15.45.29.68.42.82.5 1.65.96 2.5 1.38 15.36 7.76 34.83 4.7 46.94-9.16 3.77-4.31 7.31-8.72 10.17-12.94h.01c4.24-6.25 7-12.08 6.86-16.54 0 0 .02.01.05.05.6.55 6.92 6.26 17.21 13.92 1.41 1.06 2.9 2.15 4.45 3.27 2.36 1.69 4.87 3.44 7.54 5.23 10.83 7.3 24.02 15.18 38.55 21.72.13.06.26.12.41.17 4.41 1.99 8.95 3.84 13.58 5.52 45.21 16.35 52.92 64.46 52.92 64.46z"/><path style="fill:#78c478" d="m235.86 273.93-.67.35a243.52 243.52 0 0 1-6.05 2.99c-.08.04-.17.08-.25.12-5.92 2.84-12.12 5.48-18.47 7.78-.1.04-.2.07-.3.11-44.94 16.46-52.62 64.35-52.62 64.35v142.73c-32.26-13.46-61.18-33.33-85.16-58.02v-84.71s7.7-48.11 52.92-64.46c6.34-2.3 12.54-4.94 18.47-7.78 2.13-1.02 4.23-2.06 6.29-3.11 12.12-6.23 23.01-13.13 31.94-19.38 4.83-3.36 9.69-6.54 14.09-9.31 9.73-6.13 17.26-10.31 17.26-10.31-.03.89-.03 1.83 0 2.81.26 7.33 2.52 17.25 10.77 26.68.24.28.49.55.74.82.41.44.83.88 1.25 1.29l.69.66c.23.22.47.44.7.65.24.21.47.42.71.62.24.21.48.41.73.61.24.19.48.39.73.58.99.77 2.01 1.48 3.05 2.13.22.14.45.28.68.42.82.5 1.65.96 2.5 1.38z"/><path style="fill:#9ce3a2" d="M317.101 249.261c-1.475 32.148-27.991 57.75-60.508 57.75-33.445 0-60.559-27.114-60.559-60.559 0-.292 0-.572.013-.864 9.737-6.127 17.263-10.309 17.263-10.309-.254 7.462 1.411 18.788 10.767 29.491 15.546 17.784 43.182 17.784 58.728 0 9.356-10.703 17.275-22.017 17.034-29.479 0-.001 6.432 5.91 17.262 13.97z"/><path style="fill:#cba17e" d="M256.599 287.09c-23.91 0-43.294-19.383-43.294-43.293V195.68h86.587v48.116c.001 23.911-19.383 43.294-43.293 43.294z"/><path style="fill:#e8b88f" d="M337.827 133.507c-.47 3.585-1.767 13.182-3.419 19.322 0 0-1.335 28.907-15.61 27.445a83.078 83.078 0 0 1-2.161 5.886c-2.466 6.089-6.928 15.483-13.83 24.419-10.004 12.928-25.118 24.928-46.741 24.686-21.61.242-36.724-11.758-46.716-24.686-6.915-8.936-11.377-18.33-13.843-24.419-1.653-4.093-2.415-6.699-2.415-6.699 1.538-11.263-4.614-53.25-4.614-53.25-.877-7.246-1.042-14.885-.801-22.309.381-11.835 1.805-23.085 3.089-31.22 0-.013 0-.013.013-.025l.038-.191 5.377-7.169a9.938 9.938 0 0 1 5.377-3.648c58.805-15.559 97.143-3.496 106.385.025a9.932 9.932 0 0 1 3.61 2.377l10.068 10.36.013.076c1.208 7.958 2.466 18.458 2.809 29.453v.013a.171.171 0 0 1 0 .114c.242 7.36.064 14.949-.801 22.144 0 0-.216 1.513-.559 4.017 3.737-2.492 10.703-5.936 14.11.102.532.965.761 2.084.621 3.177z"/><path style="fill:#d2a886" d="M275.334 231.744c-5.86 2.301-12.432 3.61-19.729 3.521-43.309.483-60.508-48.089-62.733-54.991-14.275 1.449-15.61-27.432-15.61-27.432-1.64-6.153-2.949-15.75-3.407-19.335a5.134 5.134 0 0 1 .61-3.178c3.407-6.038 10.373-2.593 14.11-.102-.343-2.517-.572-4.017-.572-4.017-.877-7.246-1.042-14.885-.801-22.309.381-11.873 1.818-23.161 3.102-31.284.013-.038.013-.076.025-.102.013-.038.013-.051.013-.051l5.377-7.169a9.938 9.938 0 0 1 5.377-3.648c11.86-3.14 22.894-5.148 33.013-6.33a33.925 33.925 0 0 0-2.047 4.856s-.737 3.292-1.678 8.695c-2.186 12.559-5.428 36.584-2.924 57.343 0 0 3.458 23.644 4.538 40.195 1.017 15.686 6.267 30.89 15.75 43.423 6.676 8.835 15.726 17.339 27.586 21.915z"/><path style="fill:#9ce3a2" d="m324.995 74.359-.54 29.707-12.489-20.326a5.95 5.95 0 0 0-.318-.47c-4.068-6.089-10.284-10.436-17.428-12.102-23.847-5.53-46.423-4.576-62.834-2.301a182.507 182.507 0 0 0-13.03 2.263c-7.36 1.538-13.767 5.936-17.936 12.14-.33.483-.648.979-.941 1.487l-11.275 19.144-.102.178a20.882 20.882 0 0 1-.839-1.881V72.224l8.491-7.398c1.335-1.78 4.449-3.152 6.597-3.725 11.86-3.14 22.64-4.602 32.758-5.784 40.067-4.716 65.999 3.547 73.372 6.356a9.932 9.932 0 0 1 3.61 2.377l12.904 10.309z"/><path style="fill:#d4daf9" d="M360.679 374h-58.854c-6.115 0-11.073-4.958-11.073-11.073v-15c0-6.115 4.958-11.073 11.073-11.073h58.854c6.115 0 11.073 4.958 11.073 11.073v15c0 6.115-4.958 11.073-11.073 11.073z"/><path style="fill:none;stroke:#cb9b74;stroke-width:7;stroke-linecap:round;stroke-miterlimit:10" d="M235.278 118.469c-8.187-8.187-21.461-8.187-29.648 0"/><circle style="fill:#cb9b74" cx="220.454" cy="126.774" r="6.057"/><path style="fill:none;stroke:#cb9b74;stroke-width:7;stroke-linecap:round;stroke-miterlimit:10" d="M307.568 118.469c-8.187-8.187-21.461-8.187-29.648 0"/><circle style="fill:#cb9b74" cx="292.744" cy="126.774" r="6.057"/><path style="fill:none;stroke:#cb9b74;stroke-width:7;stroke-linecap:round;stroke-miterlimit:10" d="m248 120.358-8 31.284"/><path style="fill:#8adb8c" d="M326.678 125.319a5.783 5.783 0 0 0-7.965 1.85l-10.125 16.252h-26.13c-5.88-5.79-15.273-9.54-25.859-9.54-10.585 0-19.979 3.749-25.859 9.54h-27.127a7.57 7.57 0 0 0-7.574 7.574v35.165c2.463 6.094 6.927 15.484 13.842 24.422 31.141 10.928 62.304 10.928 93.456 0 6.903-8.939 11.367-18.328 13.83-24.422v-34.64l11.362-18.237a5.782 5.782 0 0 0-1.851-7.964z"/><path style="fill:#78c478" d="M256.597 133.881c-10.581 0-19.982 3.747-25.856 9.54h-26.423l-9.667-15.976c-1.563-2.584-4.848-3.747-7.569-2.436a5.783 5.783 0 0 0-2.453 8.21l10.958 18.11c.138.228.289.442.452.643v34.188c2.463 6.094 6.927 15.484 13.842 24.422a148.522 148.522 0 0 0 16.836 4.834c-6.302-8.499-10.419-17.218-12.755-22.988v-35.165a7.574 7.574 0 0 1 7.574-7.574h12.776c7.434 0 14.829-1.619 21.401-5.094 5.294-2.799 11.792-4.446 18.807-4.446 1.434 0 2.845.069 4.221.208-5.781-4.013-13.563-6.476-22.144-6.476z"/></svg>